<mxfile host="app.diagrams.net" modified="2023-11-12T20:43:42.108Z" agent="Mozilla/5.0 (Windows NT 10.0; Win64; x64; rv:120.0) Gecko/20100101 Firefox/120.0" version="22.1.0" etag="RkdMzPljU763jHMNyZfx" type="github">
  <diagram name="Page-1" id="f1qLy3xHC4347vZ7LxOU">
    <mxGraphModel>
      <root>
        <mxCell id="0" />
        <mxCell id="1" parent="0" />
      </root>
    </mxGraphModel>
  </diagram>
</mxfile>
